<svg xmlns="http://www.w3.org/2000/svg" version="1.1" xmlns:xlink="http://www.w3.org/1999/xlink" xmlns:svgjs="http://svgjs.dev/svgjs" viewBox="0 0 800 800"><defs><linearGradient x1="50%" y1="0%" x2="50%" y2="100%" id="uundulate-grad"><stop stop-color="hsl(37, 99%, 67%)" stop-opacity="1" offset="45%"></stop><stop stop-color="hsl(316, 73%, 52%)" stop-opacity="1" offset="100%"></stop></linearGradient></defs><g stroke-width="2" stroke="hsl(0, 0%, 100%)" fill="none"><path d="M1991.6094848946905 831.4314323094886C1911.8245408016678 1748.9670132459423 1724.5804808400626 2125.0782815478697 1235.9119525640267 2482.438037514854C747.2434242879908 2839.7977934818373 161.93905085456709 2808.6348663229783 -353.9994508302739 2546.7582609510073C-869.9379525151148 2284.881655579037 -1193.854985750033 1802.134298675181 -1240.5928555232101 1225.4303317293911C-1287.3307252963873 648.7263647836012 -1174.064671519385 434.2381951756961 -578.3412257415212 -221.42078038878435C17.382220036342233 -877.0797559532648 1083.4732861613325 -2141.0769619589255 1618.8796842105426 -1921.7327509801194C2154.286082259752 -1702.3885400013132 2071.394428987713 -86.10414862696553 1991.6094848946905 831.4314323094886C1911.8245408016678 1748.9670132459423 1724.5804808400626 2125.0782815478697 1235.9119525640267 2482.438037514854 "></path><path d="M1919.2636907703936 811.8206130319263C1843.1053350452353 1687.650031198541 1664.3723687182483 2046.6653327594722 1197.9160462729415 2387.7814634552287C731.4597238276347 2728.897594150986 172.76009464118465 2699.1511636811665 -319.7266569670726 2449.1780403715575C-812.2134085753298 2199.2049170619493 -1121.40694029957 1738.400621835542 -1166.0203614466936 1187.910471569106C-1210.6337825938172 637.4203213026699 -1102.5161858066785 432.68161394967 -533.8710784732633 -193.17468090733428C34.77402886015193 -819.0309757643381 1052.4064101612794 -2025.5737633151957 1563.476153753707 -1816.1997437445173C2074.545897346134 -1606.8257241738388 1995.4220464955515 -64.00880513468928 1919.2636907703936 811.8206130319263C1843.1053350452353 1687.650031198541 1664.3723687182483 2046.6653327594722 1197.9160462729415 2387.7814634552287 "></path><path d="M1846.91768302305 792.2104041059265C1774.3859156657559 1626.3336595027035 1604.164042973388 1968.2529943226368 1159.9199263588102 2293.125499747168C715.6758097442316 2617.9980051716984 183.58092480475534 2589.6680713909172 -285.4540767269182 2351.598430143671C-754.4890782585917 2113.528788896426 -1048.9591084721535 1674.6675553474656 -1091.4480809932238 1150.3912217603838C-1133.937053514294 626.114888173302 -1030.9679137170192 431.1256430752069 -489.4011448280521 -164.92797107432102C52.16562406091498 -760.9815852238487 1021.339320538179 -1910.0699543199037 1508.0724096738245 -1710.666126157353C1994.8054988094696 -1511.2622979948019 1919.449450380343 -41.9128512908494 1846.91768302305 792.2104041059265C1774.3859156657559 1626.3336595027035 1604.164042973388 1968.2529943226368 1159.9199263588102 2293.125499747168 "></path><path d="M1774.5718888987526 772.5998289689896C1705.6667099093238 1565.0169215959268 1543.955930851574 1889.840289674864 1121.924020067725 2198.4691698281695C699.8921092838755 2507.098049981473 194.40196859137313 2480.1846128897305 -251.18128286371666 2254.018453704847C-696.7645343188066 2027.8522945199634 -976.5110630216905 1610.9341226484516 -1016.8755869167071 1112.8716057407237C-1057.2401108117238 614.8090888329962 -959.4194280043127 429.5693059898058 -444.9309975597939 -136.68162745224572C69.55743288472468 -702.9325608942968 990.2724445381255 -1794.5665115355491 1452.6688792169884 -1605.1328747811258C1915.0653138958514 -1415.6992380267025 1843.4770678881814 -19.81726365794748 1774.5718888987526 772.5998289689896C1705.6667099093238 1565.0169215959268 1543.955930851574 1889.840289674864 1121.924020067725 2198.4691698281695 "></path><path d="M1702.2258811514089 752.9888876211157C1636.9472905298444 1503.6998174782138 1483.7476051067129 1811.4272188161544 1083.9279001535929 2103.812473698232C684.1081952004729 2396.1977285803105 205.22279875494382 2370.700788177607 -216.90870262356225 2156.4381110550858C-639.0402040020683 1942.1754339325644 -904.0632311942742 1547.2003237385006 -942.3033064632373 1075.351623510127C-980.5433817322005 603.5029232817533 -887.8711559146532 428.01260269346767 -400.46106391458284 -108.43565004110746C86.9490280854875 -644.8839027756826 959.205354915025 -1679.063434962132 1397.2651351371055 -1499.5999896158364C1835.324915359187 -1320.1365442695405 1767.504471772973 2.277957764016719 1702.2258811514089 752.9888876211157C1636.9472905298444 1503.6998174782138 1483.7476051067129 1811.4272188161544 1083.9279001535929 2103.812473698232 "></path><path d="M1629.880087027112 733.3786786951159C1568.2280847734123 1442.383445782376 1423.539492984899 1733.0148803793195 1045.931993862508 2009.156509990171C668.3244947401165 2285.298139601022 216.04384254156162 2261.2176958873574 -182.63590876036096 2058.858500827199C-581.3156600622833 1856.49930576704 -831.615185743811 1483.4672572504237 -867.7308123867206 1037.8323737014043C-903.8464390296303 592.197490152385 -816.3226702019467 426.45663181900363 -355.99091664632476 -80.18894020809466C104.3408369092972 -586.8345122351934 928.1384789149715 -1563.55962596684 1341.86160468027 -1394.0663720286718C1755.5847304455688 -1224.5731180905036 1691.5320892808109 24.373911607856144 1629.880087027112 733.3786786951159C1568.2280847734123 1442.383445782376 1423.539492984899 1733.0148803793195 1045.931993862508 2009.156509990171 "></path><path d="M1557.53420135008 713.7682256284916C1499.5087874642459 1381.0668299459126 1363.3312893103512 1654.6022978018595 1007.9359960186885 1914.500302141484C652.540702727026 2174.398306481109 226.86479477544503 2151.7343594564836 -148.36320644989382 1961.278646458687C-523.5912076752327 1770.8229334608905 -759.1672318460822 1419.7339466217227 -793.1584098629384 1000.3128797520567C-827.1495878797945 580.8918128823916 -744.7742760419746 424.9004168039155 -311.52086093080106 -51.94247451570686C121.73255418037252 -528.7853658353292 897.0715113621836 -1448.056061112173 1286.4579826707 -1288.5329985821322C1675.8444539792163 -1129.0099360520915 1615.5596152359149 46.46962131107034 1557.53420135008 713.7682256284916C1499.5087874642459 1381.0668299459126 1363.3312893103512 1654.6022978018595 1007.9359960186885 1914.500302141484 "></path><path d="M1485.1882851554706 694.1576504915547C1430.7894596375008 1319.7500920391367 1303.1230551182243 1576.1895931540876 969.9399676572912 1819.8439722224853C636.7568801963575 2063.4983512908834 237.6857164917501 2042.2509009552973 -114.09053465700492 1863.6986700198631C-465.8667858057602 1685.1464390844285 -686.7193084659316 1356.0005139227087 -718.5860378567343 962.7932637323975C-750.4527672475368 569.5860135420862 -673.2259123995807 423.34407971851465 -267.0508357328554 -23.696130893631334C139.12424093386971 -470.7363415057771 866.0045132918176 -1332.5526183278184 1231.0543301435519 -1182.9997472059054C1596.104146995286 -1033.446876083992 1539.5871106734407 68.56520894397227 1485.1882851554706 694.1576504915547C1430.7894596375008 1319.7500920391367 1303.1230551182243 1576.1895931540876 969.9399676572912 1819.8439722224853 "></path><path d="M1412.8423994784393 674.5469532843053C1362.070162328334 1258.4332320620483 1242.9148514436765 1497.7767664360022 931.9439698134715 1725.187520233174C620.973088183267 1952.5982740303457 248.50666872563352 1932.7673203837985 -79.81783234653801 1766.1185715107263C-408.1423334187094 1599.4698226376545 -614.2713545682028 1292.2669591533822 -644.0136353329519 925.2735256424248C-673.7559160977011 558.2800921314679 -601.6775182396086 421.78762056280084 -222.5807800173318 4.550090658131694C156.51595820494504 -412.6874392465379 834.9375457390299 -1217.0492976137764 1175.6507081339814 -1077.4666178999908C1516.3638705289336 -937.8839381862051 1463.6146366285448 90.66067450656169 1412.8423994784393 674.5469532843053C1362.070162328334 1258.4332320620483 1242.9148514436765 1497.7767664360022 931.9439698134715 1725.187520233174 "></path><path d="M1340.4964832838295 654.936683323149C1293.350834501589 1197.1167993310542 1182.7066172515497 1419.364366964011 893.947941452074 1630.531495489956C605.1892656525984 1841.6986240159008 259.3275904419388 1823.284167058393 -45.54516055364911 1668.5389002476832C-350.4179115492369 1513.7936334369733 -541.8234311880522 1228.5338316301495 -569.4412633267477 887.754214798546C-597.0590954654433 546.9745979669433 -530.1291545972148 420.23158865318123 -178.1107548193861 32.796739455988245C173.90764495844223 -354.63810974120474 803.8705476686639 -1101.5455496536406 1120.2470556068338 -971.9330613479824C1436.623563545003 -842.3205730423243 1387.6421320660706 112.75656731524464 1340.4964832838295 654.936683323149C1293.350834501589 1197.1167993310542 1182.7066172515497 1419.364366964011 893.947941452074 1630.531495489956 "></path><path d="M1268.1505976067983 635.3261692213684C1224.6315371924225 1135.800122459434 1122.4984135770014 1340.9517233513943 855.9519436082546 1535.8752266061133C589.4054736395078 1730.7987298608314 270.1485426758222 1713.8007695923625 -11.2724582431822 1570.9589848440155C-292.6934591621863 1428.1172000956676 -469.3754772903234 1164.8004599662918 -494.8688608029655 850.234659814043C-520.3622443156075 535.6688596617937 -458.5807604372427 418.6753126029364 -133.64069910386252 61.043144113219796C191.29936222951756 -296.5890243764968 772.803580115876 -986.0420458341298 1064.8434335972634 -866.3997489365992C1356.8832870786505 -746.7574520390687 1311.6696580211747 134.8522159833028 1268.1505976067983 635.3261692213684C1224.6315371924225 1135.800122459434 1122.4984135770014 1340.9517233513943 855.9519436082546 1535.8752266061133 "></path><path d="M1195.8047424473452 615.7153499438068C1155.912270400834 1074.4831404120337 1062.2902404200313 1262.5387745629973 817.9559762820134 1441.2186525464895C573.6217121439954 1619.8985305299811 280.96952542728354 1604.3170669505516 23.000274584863064 1473.3787642645661C-234.96897625755742 1342.440461578581 -396.92749287501647 1101.0667831266528 -420.29642776160506 812.7147996537581C-443.66536264819365 524.3628161808631 -387.0323357596925 417.11873137691055 -89.17061287076058 89.28924359467032C208.69111001817112 -238.5402441875699 741.7366430806662 -870.5388471904002 1009.4398421052713 -760.8667417009972C1277.143041129876 -651.1946362115941 1235.6972144938566 156.94755947557974 1195.8047424473452 615.7153499438068C1155.912270400834 1074.4831404120337 1062.2902404200313 1262.5387745629973 817.9559762820134 1441.2186525464895 "></path><path d="M1123.458826252736 596.1052020529633C1087.1929425740889 1013.1668297513518 1002.0820062279049 1184.1264971613182 779.9599479206161 1346.562749873584C557.8378896133268 1508.9990025858492 291.7904471435886 1494.8340356954586 57.27294637775185 1375.7992150718355C-177.2445543880849 1256.764394448213 -324.47956949486587 1037.3337776737326 -345.7240557554009 775.1956108801919C-366.968542015936 513.057444086651 -315.4839721172986 415.56282153760344 -44.70058767281512 117.53601446283938C226.08279677166843 -180.49079261192435 710.6696450103004 -755.034977159952 954.0361895781232 -655.3330630786763C1197.4027341459457 -555.6311489974009 1159.7247099313824 179.0435743545754 1123.458826252736 596.1052020529633C1087.1929425740889 1013.1668297513518 1002.0820062279049 1184.1264971613182 779.9599479206161 1346.562749873584 "></path><path d="M1051.1129405757044 576.4946269160266C1018.4736452649222 951.8500918445757 941.8738025533564 1105.713792513546 741.9639500767964 1251.9064199545846C542.0540976002364 1398.099047395624 302.6113993774719 1385.3505771942723 91.54564868821888 1278.2192386330116C-119.52010200103416 1171.087900071751 -252.0316155971371 973.6003449747191 -271.15165323161864 737.6759948605322C-290.27169086610024 501.7516447463454 -243.9355779573266 414.0064844522026 -0.23053195729141862 145.7823580849149C243.47451404274375 -122.44176828237255 679.6026774575125 -639.5315343755973 898.6325675685528 -549.7998117024495C1117.6624576795934 -460.06808902930146 1083.7522358864865 201.1391619874771 1051.1129405757044 576.4946269160266C1018.4736452649222 951.8500918445757 941.8738025533564 1105.713792513546 741.9639500767964 1251.9064199545846 "></path><path d="M978.7670854162509 556.884173849402C949.7543784733339 890.5334760081125 881.6656293963865 1027.301209936086 703.9679827505552 1157.2502121058983C526.2703361047238 1287.1992142757108 313.43238212893345 1275.867240763398 125.81838151626403 1180.6393842644998C-61.7956190964054 1085.4115277656015 -179.58363118183019 909.8670343460176 -196.57922019025824 700.1565009111846C-213.5748091986863 490.44596747635205 -172.38715327977638 412.450269437114 44.239554275810406 174.02882377730282C260.8662618313972 -64.39262188250837 648.5357404223028 -524.0279695209302 843.2289760765609 -444.26643825590986C1037.922211730819 -364.5049069908895 1007.7797923591684 223.23487169069142 978.7670854162509 556.884173849402C949.7543784733339 890.5334760081125 881.6656293963865 1027.301209936086 703.9679827505552 1157.2502121058983 "></path><path d="M906.4211081864853 537.2734766421527C881.0349896114326 829.2166160310242 821.4573341691039 948.8883832180011 665.9718933540014 1062.593760116587C510.48645253889913 1176.2991370151728 324.2532428100824 1166.3836601918993 160.09099227399656 1083.0592857553631C-4.0712582620890885 999.7349113188272 -107.13576883683578 846.1334795766911 -122.00690921921034 662.6367628212124C-136.8780496015849 479.14004606573394 -100.83885067253874 410.8938102814004 88.70951843859973 202.27504532906585C278.25788754973814 -6.343719623268953 617.4686813167805 -408.5246488068882 787.8252625142563 -338.7333089499954C958.1818437117324 -268.94196909310256 931.807226761538 245.33033725328085 906.4211081864853 537.2734766421527C881.0349896114326 829.2166160310242 821.4573341691039 948.8883832180011 665.9718933540014 1062.593760116587 "></path><path d="M834.0753140621882 517.6629625403716C812.3157838550003 767.8999391594045 761.2492220472898 870.4757396053847 627.9759870629164 967.9374912327442C494.70275207854297 1065.3992428601032 335.0742865967002 1056.9002627258687 194.36378613719796 985.4793703516953C53.65328567769592 914.0584779775213 -34.687723386372625 782.4001079128334 -47.434415142693695 625.117207836709C-60.18110689901471 467.83430776058435 -29.29036495983229 409.3375342311557 133.1796657068578 230.5214499862974C295.64969637354784 51.705365741439095 586.4018053167271 -293.0211449873774 732.4217320574207 -233.19999653861208C878.4416587981143 -173.37884808984683 855.8348442693764 267.4259859213389 834.0753140621882 517.6629625403716C812.3157838550003 767.8999391594045 761.2492220472898 870.4757396053847 627.9759870629164 967.9374912327442 "></path><path d="M761.729428385157 498.05250947374725C743.5964865458336 706.5833233229414 701.0410183727415 792.0631570279247 589.9799892190971 873.2812833840576C478.91896006545244 954.4994097401902 345.89523883058337 947.4169262949949 228.636488447665 887.8995159831834C111.37773806474661 828.3821056713721 37.760230511356156 718.6667972841319 27.13798738108858 587.5977138873616C16.515744250821058 456.5286304905911 42.25802920013973 407.78131921606735 177.6497214223815 258.7679156786853C313.0414136446233 109.7545121413034 555.3348377639393 -177.5175801327103 677.0181100478507 -127.6666230920726C798.701382331762 -77.81566605143485 779.8623702244804 289.52169562455333 761.729428385157 498.05250947374725C743.5964865458336 706.5833233229414 701.0410183727415 792.0631570279247 589.9799892190971 873.2812833840576 "></path><path d="M689.3835427081254 478.442086924701C674.8771892366669 645.2667380040563 640.8328146981933 713.6506049680429 551.9839913752776 778.6251060529491C463.1351680523619 843.5996071378554 356.7161910644668 837.933620381699 262.909190758132 790.3196921322499C169.1021904517973 742.7057638828007 110.20818440908494 654.9335171730088 101.71038990487085 550.0782504555923C93.21259540065682 445.222983738176 113.80642336011181 406.225134718557 222.1197771379052 287.01441188865147C330.4331309156986 167.80368905874582 524.2678702111514 -62.01398476046512 621.6144880382805 -22.13321912795493C718.9611058654095 17.74754650455526 703.8898961795842 311.61743584534565 689.3835427081254 478.442086924701C674.8771892366669 645.2667380040563 640.8328146981933 713.6506049680429 551.9839913752776 778.6251060529491 "></path><path d="M617.0376570310941 458.83151178776393C606.1578919275001 583.9500000972804 580.6246110236449 635.2379003202705 513.9879935314582 683.9687761339502C447.3513760392715 732.6996519476297 367.5371432983501 728.4501618805125 297.181893068599 692.7397156934258C226.826642838848 657.0292695063388 182.65613830681366 591.2000844739948 176.28279242865318 512.5586344359326C169.90944655049265 433.9171843978703 185.35481752008383 404.6687976331559 266.5898328534289 315.26075551072677C347.8248481867739 225.85271338829767 493.2009026583635 53.489458023889426 566.2108660287104 83.40003224827205C639.2208293990572 113.31060647265474 627.9174221346882 333.7130234782476 617.0376570310941 458.83151178776393C606.1578919275001 583.9500000972804 580.6246110236449 635.2379003202705 513.9879935314582 683.9687761339502 "></path><path d="M544.6917713540627 439.2210129447724C537.4385946183335 522.63333848445 520.4164073490966 556.8252719664433 475.9919956876388 589.3125225088964C431.56758402618095 621.7997730513496 378.3580955322334 618.9667796732714 331.454595379066 595.1598155485468C284.5510952258986 571.3528514238222 255.10409220454244 527.4667280689263 250.85519495243545 475.039094710218C246.6062977003284 422.6114613515099 256.9032116800559 403.1125368417004 311.0598885689526 343.5071754267476C365.2165654578493 283.9018140117948 462.1339351055757 168.99297710218934 510.80724401914017 188.9333599184444C559.4805529327048 208.87374273469948 551.9449480897921 355.8086874050947 544.6917713540627 439.2210129447724C537.4385946183335 522.63333848445 520.4164073490966 556.8252719664433 475.9919956876388 589.3125225088964 "></path><path d="M472.34587041824227 419.61049884299166C468.7192820503776 461.31666161283044 460.20818841575925 478.41262835382713 437.99598258503033 494.65625362505375C415.7837767543014 510.89987889628026 389.17903250732763 509.4833822072412 365.7272824307439 497.5799001448788C342.27553235416025 485.67641808251665 327.55203084348216 463.73335640506866 325.42758221742866 437.5195397257145C323.3031335913752 411.3057230463604 328.45159058123886 401.55626079145566 355.52992902568724 371.7535800839793C382.6082674701356 341.9508993765029 431.0669522939988 284.49648092170014 455.403606750781 294.46667232982765C479.7402612075633 304.4368637379552 475.9724587861069 377.9043360731528 472.34587041824227 419.61049884299166C468.7192820503776 461.31666161283044 460.20818841575925 478.41262835382713 437.99598258503033 494.65625362505375 "></path></g></svg>